<mxfile modified="2022-01-03T08:54:44.982Z" host="app.diagrams.net" agent="5.0 (Macintosh; Intel Mac OS X 10_15_7) AppleWebKit/537.36 (KHTML, like Gecko) Chrome/96.0.4664.110 Safari/537.36" etag="gZ3FVhF6cbcvD0903JUu" version="16.1.0" type="github">
  <diagram id="f106602c-feb2-e66a-4537-3a34d633f6aa" name="Page-1">
    <mxGraphModel dx="909" dy="1067" grid="1" gridSize="10" guides="1" tooltips="1" connect="1" arrows="1" fold="1" page="1" pageScale="1" pageWidth="1169" pageHeight="827" background="none" math="0" shadow="0">
      <root>
        <mxCell id="0" />
        <mxCell id="1" parent="0" />
        <mxCell id="y1Ou2DsdIgHLBP2Uc2Tw-728" value="mysql" style="strokeColor=#9673a6;shadow=1;strokeWidth=1;rounded=1;absoluteArcSize=1;arcSize=2;fillColor=#e1d5e7;" parent="1" vertex="1">
          <mxGeometry x="150" y="140" width="100" height="50" as="geometry" />
        </mxCell>
        <mxCell id="y1Ou2DsdIgHLBP2Uc2Tw-733" value="Meta Center" style="strokeColor=#d79b00;shadow=1;strokeWidth=1;rounded=1;absoluteArcSize=1;arcSize=2;fillColor=#ffe6cc;" parent="1" vertex="1">
          <mxGeometry x="180" y="361" width="90" height="92" as="geometry" />
        </mxCell>
        <mxCell id="y1Ou2DsdIgHLBP2Uc2Tw-746" value="" style="edgeStyle=none;rounded=0;orthogonalLoop=1;jettySize=auto;html=1;startArrow=classic;startFill=1;" parent="1" source="y1Ou2DsdIgHLBP2Uc2Tw-745" target="y1Ou2DsdIgHLBP2Uc2Tw-733" edge="1">
          <mxGeometry relative="1" as="geometry" />
        </mxCell>
        <mxCell id="y1Ou2DsdIgHLBP2Uc2Tw-751" value="" style="group" parent="1" vertex="1" connectable="0">
          <mxGeometry x="20" y="302" width="140" height="210" as="geometry" />
        </mxCell>
        <mxCell id="y1Ou2DsdIgHLBP2Uc2Tw-745" value="" style="strokeColor=#67AB9F;shadow=0;strokeWidth=1;rounded=1;absoluteArcSize=1;arcSize=2;" parent="y1Ou2DsdIgHLBP2Uc2Tw-751" vertex="1">
          <mxGeometry width="140" height="210" as="geometry" />
        </mxCell>
        <mxCell id="y1Ou2DsdIgHLBP2Uc2Tw-747" value="kafka/pulsar" style="strokeColor=#b85450;shadow=1;strokeWidth=1;rounded=1;absoluteArcSize=1;arcSize=2;fillColor=#f8cecc;" parent="y1Ou2DsdIgHLBP2Uc2Tw-751" vertex="1">
          <mxGeometry x="20" y="38" width="100" height="44" as="geometry" />
        </mxCell>
        <mxCell id="y1Ou2DsdIgHLBP2Uc2Tw-748" value="RMDBS" style="strokeColor=#b85450;shadow=1;strokeWidth=1;rounded=1;absoluteArcSize=1;arcSize=2;fillColor=#f8cecc;" parent="y1Ou2DsdIgHLBP2Uc2Tw-751" vertex="1">
          <mxGeometry x="20" y="92" width="100" height="44" as="geometry" />
        </mxCell>
        <mxCell id="y1Ou2DsdIgHLBP2Uc2Tw-749" value="HBase" style="strokeColor=#b85450;shadow=1;strokeWidth=1;rounded=1;absoluteArcSize=1;arcSize=2;fillColor=#f8cecc;" parent="y1Ou2DsdIgHLBP2Uc2Tw-751" vertex="1">
          <mxGeometry x="20" y="150" width="100" height="44" as="geometry" />
        </mxCell>
        <mxCell id="y1Ou2DsdIgHLBP2Uc2Tw-750" value="Data Storage" style="text;html=1;resizable=0;autosize=1;align=center;verticalAlign=middle;points=[];fillColor=none;strokeColor=none;rounded=0;shadow=1;" parent="y1Ou2DsdIgHLBP2Uc2Tw-751" vertex="1">
          <mxGeometry x="25" y="10" width="90" height="20" as="geometry" />
        </mxCell>
        <mxCell id="y1Ou2DsdIgHLBP2Uc2Tw-759" value="" style="group" parent="1" vertex="1" connectable="0">
          <mxGeometry x="505" y="330" width="160" height="140" as="geometry" />
        </mxCell>
        <mxCell id="y1Ou2DsdIgHLBP2Uc2Tw-752" value="" style="strokeColor=#F19C99;shadow=0;strokeWidth=1;rounded=1;absoluteArcSize=1;arcSize=2;" parent="y1Ou2DsdIgHLBP2Uc2Tw-759" vertex="1">
          <mxGeometry width="160" height="140" as="geometry" />
        </mxCell>
        <mxCell id="y1Ou2DsdIgHLBP2Uc2Tw-753" value="SQL Submiter" style="text;html=1;resizable=0;autosize=1;align=center;verticalAlign=middle;points=[];fillColor=none;strokeColor=none;rounded=0;shadow=1;" parent="y1Ou2DsdIgHLBP2Uc2Tw-759" vertex="1">
          <mxGeometry x="35" y="12" width="90" height="20" as="geometry" />
        </mxCell>
        <mxCell id="y1Ou2DsdIgHLBP2Uc2Tw-754" value="JobEnv" style="strokeColor=#b85450;shadow=1;strokeWidth=1;rounded=1;absoluteArcSize=1;arcSize=2;fillColor=#f8cecc;" parent="y1Ou2DsdIgHLBP2Uc2Tw-759" vertex="1">
          <mxGeometry x="30" y="40" width="100" height="30" as="geometry" />
        </mxCell>
        <mxCell id="y1Ou2DsdIgHLBP2Uc2Tw-755" value="SQL parser" style="strokeColor=#82b366;shadow=1;strokeWidth=1;rounded=1;absoluteArcSize=1;arcSize=2;fillColor=#d5e8d4;" parent="y1Ou2DsdIgHLBP2Uc2Tw-759" vertex="1">
          <mxGeometry x="30" y="80" width="100" height="30" as="geometry" />
        </mxCell>
        <mxCell id="y1Ou2DsdIgHLBP2Uc2Tw-771" style="edgeStyle=orthogonalEdgeStyle;rounded=0;orthogonalLoop=1;jettySize=auto;html=1;entryX=0.5;entryY=0;entryDx=0;entryDy=0;" parent="1" source="y1Ou2DsdIgHLBP2Uc2Tw-760" target="y1Ou2DsdIgHLBP2Uc2Tw-762" edge="1">
          <mxGeometry relative="1" as="geometry" />
        </mxCell>
        <mxCell id="y1Ou2DsdIgHLBP2Uc2Tw-760" value="sailfish console" style="strokeColor=#9673a6;shadow=1;strokeWidth=1;rounded=1;absoluteArcSize=1;arcSize=2;fillColor=#e1d5e7;" parent="1" vertex="1">
          <mxGeometry x="505" y="240" width="160" height="34" as="geometry" />
        </mxCell>
        <mxCell id="y1Ou2DsdIgHLBP2Uc2Tw-770" value="" style="edgeStyle=none;rounded=0;orthogonalLoop=1;jettySize=auto;html=1;" parent="1" source="y1Ou2DsdIgHLBP2Uc2Tw-752" target="y1Ou2DsdIgHLBP2Uc2Tw-760" edge="1">
          <mxGeometry relative="1" as="geometry" />
        </mxCell>
        <mxCell id="y1Ou2DsdIgHLBP2Uc2Tw-772" value="" style="group" parent="1" vertex="1" connectable="0">
          <mxGeometry x="300" y="270" width="160" height="180" as="geometry" />
        </mxCell>
        <mxCell id="y1Ou2DsdIgHLBP2Uc2Tw-738" value="" style="strokeColor=#67AB9F;shadow=0;strokeWidth=1;rounded=1;absoluteArcSize=1;arcSize=2;" parent="y1Ou2DsdIgHLBP2Uc2Tw-772" vertex="1">
          <mxGeometry width="160" height="180" as="geometry" />
        </mxCell>
        <mxCell id="y1Ou2DsdIgHLBP2Uc2Tw-732" value="sailfish catalog" style="strokeColor=#82b366;shadow=1;strokeWidth=1;rounded=1;absoluteArcSize=1;arcSize=2;fillColor=#d5e8d4;" parent="y1Ou2DsdIgHLBP2Uc2Tw-772" vertex="1">
          <mxGeometry x="30" y="114" width="100" height="46" as="geometry" />
        </mxCell>
        <mxCell id="y1Ou2DsdIgHLBP2Uc2Tw-736" style="edgeStyle=none;rounded=0;orthogonalLoop=1;jettySize=auto;html=1;entryX=0.5;entryY=0;entryDx=0;entryDy=0;" parent="y1Ou2DsdIgHLBP2Uc2Tw-772" source="y1Ou2DsdIgHLBP2Uc2Tw-735" target="y1Ou2DsdIgHLBP2Uc2Tw-732" edge="1">
          <mxGeometry relative="1" as="geometry" />
        </mxCell>
        <mxCell id="y1Ou2DsdIgHLBP2Uc2Tw-735" value="SQL parser" style="strokeColor=#82b366;shadow=1;strokeWidth=1;rounded=1;absoluteArcSize=1;arcSize=2;fillColor=#d5e8d4;" parent="y1Ou2DsdIgHLBP2Uc2Tw-772" vertex="1">
          <mxGeometry x="30" y="50" width="100" height="44" as="geometry" />
        </mxCell>
        <mxCell id="y1Ou2DsdIgHLBP2Uc2Tw-742" value="SQL Generator" style="text;html=1;resizable=0;autosize=1;align=center;verticalAlign=middle;points=[];fillColor=none;strokeColor=none;rounded=0;shadow=1;" parent="y1Ou2DsdIgHLBP2Uc2Tw-772" vertex="1">
          <mxGeometry x="30" y="10" width="100" height="20" as="geometry" />
        </mxCell>
        <mxCell id="y1Ou2DsdIgHLBP2Uc2Tw-734" style="rounded=0;orthogonalLoop=1;jettySize=auto;html=1;entryX=1;entryY=0.5;entryDx=0;entryDy=0;startArrow=classic;startFill=1;" parent="1" source="y1Ou2DsdIgHLBP2Uc2Tw-732" target="y1Ou2DsdIgHLBP2Uc2Tw-733" edge="1">
          <mxGeometry relative="1" as="geometry" />
        </mxCell>
        <mxCell id="y1Ou2DsdIgHLBP2Uc2Tw-773" value="提交" style="text;html=1;resizable=0;autosize=1;align=center;verticalAlign=middle;points=[];fillColor=none;strokeColor=none;rounded=0;shadow=1;" parent="1" vertex="1">
          <mxGeometry x="730" y="480" width="40" height="20" as="geometry" />
        </mxCell>
        <mxCell id="y1Ou2DsdIgHLBP2Uc2Tw-776" style="rounded=0;orthogonalLoop=1;jettySize=auto;html=1;exitX=0.25;exitY=1;exitDx=0;exitDy=0;entryX=0.25;entryY=0;entryDx=0;entryDy=0;" parent="1" source="y1Ou2DsdIgHLBP2Uc2Tw-774" target="y1Ou2DsdIgHLBP2Uc2Tw-738" edge="1">
          <mxGeometry relative="1" as="geometry" />
        </mxCell>
        <mxCell id="y1Ou2DsdIgHLBP2Uc2Tw-780" value="2. DML" style="edgeLabel;html=1;align=center;verticalAlign=middle;resizable=0;points=[];" parent="y1Ou2DsdIgHLBP2Uc2Tw-776" vertex="1" connectable="0">
          <mxGeometry x="0.2883" y="-4" relative="1" as="geometry">
            <mxPoint as="offset" />
          </mxGeometry>
        </mxCell>
        <mxCell id="hYcWnGnVhMO6J0_0KaNX-6" style="edgeStyle=orthogonalEdgeStyle;rounded=0;orthogonalLoop=1;jettySize=auto;html=1;entryX=1;entryY=0.5;entryDx=0;entryDy=0;startArrow=none;startFill=0;" edge="1" parent="1" source="y1Ou2DsdIgHLBP2Uc2Tw-774" target="y1Ou2DsdIgHLBP2Uc2Tw-728">
          <mxGeometry relative="1" as="geometry" />
        </mxCell>
        <mxCell id="hYcWnGnVhMO6J0_0KaNX-7" style="edgeStyle=orthogonalEdgeStyle;rounded=0;orthogonalLoop=1;jettySize=auto;html=1;startArrow=none;startFill=0;" edge="1" parent="1" source="y1Ou2DsdIgHLBP2Uc2Tw-774" target="y1Ou2DsdIgHLBP2Uc2Tw-760">
          <mxGeometry relative="1" as="geometry" />
        </mxCell>
        <mxCell id="hYcWnGnVhMO6J0_0KaNX-8" value="4. online/explain/submit" style="edgeLabel;html=1;align=center;verticalAlign=middle;resizable=0;points=[];" vertex="1" connectable="0" parent="hYcWnGnVhMO6J0_0KaNX-7">
          <mxGeometry x="-0.16" y="-2" relative="1" as="geometry">
            <mxPoint as="offset" />
          </mxGeometry>
        </mxCell>
        <mxCell id="y1Ou2DsdIgHLBP2Uc2Tw-774" value="sailfish service" style="strokeColor=#9673a6;shadow=1;strokeWidth=1;rounded=1;absoluteArcSize=1;arcSize=2;fillColor=#e1d5e7;" parent="1" vertex="1">
          <mxGeometry x="300" y="140" width="570" height="50" as="geometry" />
        </mxCell>
        <mxCell id="y1Ou2DsdIgHLBP2Uc2Tw-778" style="edgeStyle=none;rounded=0;orthogonalLoop=1;jettySize=auto;html=1;entryX=0.325;entryY=1;entryDx=0;entryDy=0;exitX=0.75;exitY=0;exitDx=0;exitDy=0;entryPerimeter=0;" parent="1" source="y1Ou2DsdIgHLBP2Uc2Tw-738" target="y1Ou2DsdIgHLBP2Uc2Tw-774" edge="1">
          <mxGeometry relative="1" as="geometry" />
        </mxCell>
        <mxCell id="y1Ou2DsdIgHLBP2Uc2Tw-781" value="&lt;span style=&quot;font-size: 12px ; background-color: rgb(248 , 249 , 250)&quot;&gt;3. Complete SQL&lt;/span&gt;" style="edgeLabel;html=1;align=center;verticalAlign=middle;resizable=0;points=[];" parent="y1Ou2DsdIgHLBP2Uc2Tw-778" vertex="1" connectable="0">
          <mxGeometry x="-0.0922" relative="1" as="geometry">
            <mxPoint as="offset" />
          </mxGeometry>
        </mxCell>
        <mxCell id="hYcWnGnVhMO6J0_0KaNX-2" style="edgeStyle=orthogonalEdgeStyle;rounded=0;orthogonalLoop=1;jettySize=auto;html=1;startArrow=classic;startFill=1;" edge="1" parent="1" target="y1Ou2DsdIgHLBP2Uc2Tw-774">
          <mxGeometry relative="1" as="geometry">
            <mxPoint x="585" y="80" as="sourcePoint" />
          </mxGeometry>
        </mxCell>
        <mxCell id="hYcWnGnVhMO6J0_0KaNX-4" value="1. DML" style="edgeLabel;html=1;align=center;verticalAlign=middle;resizable=0;points=[];" vertex="1" connectable="0" parent="hYcWnGnVhMO6J0_0KaNX-2">
          <mxGeometry x="-0.2333" y="-2" relative="1" as="geometry">
            <mxPoint as="offset" />
          </mxGeometry>
        </mxCell>
        <mxCell id="hYcWnGnVhMO6J0_0KaNX-3" value="WEB IDE" style="rounded=1;whiteSpace=wrap;html=1;" vertex="1" parent="1">
          <mxGeometry x="525" y="40" width="120" height="50" as="geometry" />
        </mxCell>
        <mxCell id="hYcWnGnVhMO6J0_0KaNX-9" value="" style="group" vertex="1" connectable="0" parent="1">
          <mxGeometry x="720" y="280" width="160" height="140" as="geometry" />
        </mxCell>
        <mxCell id="y1Ou2DsdIgHLBP2Uc2Tw-762" value="" style="strokeColor=#F19C99;shadow=0;strokeWidth=1;rounded=1;absoluteArcSize=1;arcSize=2;" parent="hYcWnGnVhMO6J0_0KaNX-9" vertex="1">
          <mxGeometry width="160" height="140" as="geometry" />
        </mxCell>
        <mxCell id="y1Ou2DsdIgHLBP2Uc2Tw-763" value="Flink Cluster Manager" style="text;html=1;resizable=0;autosize=1;align=center;verticalAlign=middle;points=[];fillColor=none;strokeColor=none;rounded=0;shadow=1;" parent="hYcWnGnVhMO6J0_0KaNX-9" vertex="1">
          <mxGeometry x="15" y="12" width="130" height="20" as="geometry" />
        </mxCell>
        <mxCell id="y1Ou2DsdIgHLBP2Uc2Tw-764" value="Resource" style="strokeColor=#6c8ebf;shadow=1;strokeWidth=1;rounded=1;absoluteArcSize=1;arcSize=2;fillColor=#dae8fc;" parent="hYcWnGnVhMO6J0_0KaNX-9" vertex="1">
          <mxGeometry x="30" y="40" width="100" height="30" as="geometry" />
        </mxCell>
        <mxCell id="y1Ou2DsdIgHLBP2Uc2Tw-765" value="Metrics" style="strokeColor=#6c8ebf;shadow=1;strokeWidth=1;rounded=1;absoluteArcSize=1;arcSize=2;fillColor=#dae8fc;" parent="hYcWnGnVhMO6J0_0KaNX-9" vertex="1">
          <mxGeometry x="30" y="80" width="100" height="30" as="geometry" />
        </mxCell>
      </root>
    </mxGraphModel>
  </diagram>
</mxfile>
